0
SECTION
2
ENTITIES
0
LINE
10
9
20
0
11
245
21
0
0
LINE
10
9
20
168
11
245
21
168
0
LINE
10
9
20
0
11
9
21
42
0
LINE
10
245
20
0
11
245
21
42
0
LINE
10
9
20
168
11
9
21
126
0
LINE
10
245
20
168
11
245
21
126
0
LINE
10
9
20
42
11
3
21
42
0
LINE
10
0
20
45
11
0
21
123
0
LINE
10
3
20
126
11
9
21
126
0
LINE
10
245
20
42
11
251
21
42
0
LINE
10
254
20
45
11
254
21
123
0
LINE
10
251
20
126
11
245
21
126
0
LINE
10
3
20
83
11
6
21
83
0
LINE
10
6
20
83
11
6
21
81
0
LINE
10
6
20
81
11
3
21
81
0
LINE
10
3
20
81
11
3
21
83
0
LINE
10
3
20
85
11
6
21
85
0
LINE
10
6
20
85
11
6
21
87
0
LINE
10
6
20
87
11
3
21
87
0
LINE
10
3
20
87
11
3
21
85
0
LINE
10
248
20
83
11
251
21
83
0
LINE
10
251
20
83
11
251
21
81
0
LINE
10
251
20
81
11
248
21
81
0
LINE
10
248
20
81
11
248
21
83
0
LINE
10
248
20
85
11
251
21
85
0
LINE
10
251
20
85
11
251
21
87
0
LINE
10
251
20
87
11
248
21
87
0
LINE
10
248
20
87
11
248
21
85
0
LINE
10
12
20
6
11
58
21
6
0
LINE
10
58
20
6
11
58
21
3
0
LINE
10
58
20
3
11
12
21
3
0
LINE
10
12
20
3
11
12
21
6
0
LINE
10
12
20
162
11
58
21
162
0
LINE
10
58
20
162
11
58
21
165
0
LINE
10
58
20
165
11
12
21
165
0
LINE
10
12
20
165
11
12
21
162
0
LINE
10
104
20
6
11
150
21
6
0
LINE
10
150
20
6
11
150
21
3
0
LINE
10
150
20
3
11
104
21
3
0
LINE
10
104
20
3
11
104
21
6
0
LINE
10
104
20
162
11
150
21
162
0
LINE
10
150
20
162
11
150
21
165
0
LINE
10
150
20
165
11
104
21
165
0
LINE
10
104
20
165
11
104
21
162
0
LINE
10
196
20
6
11
242
21
6
0
LINE
10
242
20
6
11
242
21
3
0
LINE
10
242
20
3
11
196
21
3
0
LINE
10
196
20
3
11
196
21
6
0
LINE
10
196
20
162
11
242
21
162
0
LINE
10
242
20
162
11
242
21
165
0
LINE
10
242
20
165
11
196
21
165
0
LINE
10
196
20
165
11
196
21
162
0
LINE
10
59
20
37.2
11
62
21
37.2
0
LINE
10
62
20
37.2
11
62
21
68.4
0
LINE
10
62
20
68.4
11
59
21
68.4
0
LINE
10
59
20
68.4
11
59
21
37.2
0
LINE
10
59
20
130.8
11
62
21
130.8
0
LINE
10
62
20
130.8
11
62
21
99.6
0
LINE
10
62
20
99.6
11
59
21
99.6
0
LINE
10
59
20
99.6
11
59
21
130.8
0
LINE
10
142
20
37.2
11
145
21
37.2
0
LINE
10
145
20
37.2
11
145
21
68.4
0
LINE
10
145
20
68.4
11
142
21
68.4
0
LINE
10
142
20
68.4
11
142
21
37.2
0
LINE
10
142
20
130.8
11
145
21
130.8
0
LINE
10
145
20
130.8
11
145
21
99.6
0
LINE
10
145
20
99.6
11
142
21
99.6
0
LINE
10
142
20
99.6
11
142
21
130.8
0
LINE
10
46.5
20
56
11
21.5
21
56
0
LINE
10
21.5
20
56
11
21.5
21
59
0
LINE
10
21.5
20
59
11
46.5
21
59
0
LINE
10
46.5
20
59
11
46.5
21
56
0
LINE
10
46.5
20
109
11
21.5
21
109
0
LINE
10
21.5
20
109
11
21.5
21
112
0
LINE
10
21.5
20
112
11
46.5
21
112
0
LINE
10
46.5
20
112
11
46.5
21
109
0
LINE
10
122
20
56
11
82
21
56
0
LINE
10
82
20
56
11
82
21
59
0
LINE
10
82
20
59
11
122
21
59
0
LINE
10
122
20
59
11
122
21
56
0
LINE
10
122
20
109
11
82
21
109
0
LINE
10
82
20
109
11
82
21
112
0
LINE
10
82
20
112
11
122
21
112
0
LINE
10
122
20
112
11
122
21
109
0
LINE
10
220
20
56
11
170
21
56
0
LINE
10
170
20
56
11
170
21
59
0
LINE
10
170
20
59
11
220
21
59
0
LINE
10
220
20
59
11
220
21
56
0
LINE
10
220
20
109
11
170
21
109
0
LINE
10
170
20
109
11
170
21
112
0
LINE
10
170
20
112
11
220
21
112
0
LINE
10
220
20
112
11
220
21
109
0
LINE
10
9
20
172
11
12
21
172
0
LINE
10
12
20
172
11
12
21
169
0
LINE
10
12
20
169
11
58
21
169
0
LINE
10
58
20
169
11
58
21
172
0
LINE
10
58
20
172
11
104
21
172
0
LINE
10
104
20
172
11
104
21
169
0
LINE
10
104
20
169
11
150
21
169
0
LINE
10
150
20
169
11
150
21
172
0
LINE
10
150
20
172
11
196
21
172
0
LINE
10
196
20
172
11
196
21
169
0
LINE
10
196
20
169
11
242
21
169
0
LINE
10
242
20
169
11
242
21
172
0
LINE
10
242
20
172
11
245
21
172
0
LINE
10
9
20
211
11
245
21
211
0
LINE
10
9
20
172
11
9
21
181.75
0
LINE
10
9
20
181.75
11
3
21
181.75
0
LINE
10
0
20
184.75
11
0
21
198.25
0
LINE
10
3
20
201.25
11
9
21
201.25
0
LINE
10
9
20
201.25
11
9
21
211
0
LINE
10
245
20
172
11
245
21
181.75
0
LINE
10
245
20
181.75
11
251
21
181.75
0
LINE
10
254
20
184.75
11
254
21
198.25
0
LINE
10
251
20
201.25
11
245
21
201.25
0
LINE
10
245
20
201.25
11
245
21
211
0
LINE
10
6
20
192
11
3
21
192
0
LINE
10
3
20
192
11
3
21
190
0
LINE
10
3
20
190
11
6
21
190
0
LINE
10
6
20
190
11
6
21
192
0
LINE
10
6
20
194
11
3
21
194
0
LINE
10
3
20
194
11
3
21
196
0
LINE
10
3
20
196
11
6
21
196
0
LINE
10
6
20
196
11
6
21
194
0
LINE
10
248
20
192
11
251
21
192
0
LINE
10
251
20
192
11
251
21
190
0
LINE
10
251
20
190
11
248
21
190
0
LINE
10
248
20
190
11
248
21
192
0
LINE
10
248
20
194
11
251
21
194
0
LINE
10
251
20
194
11
251
21
196
0
LINE
10
251
20
196
11
248
21
196
0
LINE
10
248
20
196
11
248
21
194
0
LINE
10
59
20
180.25
11
62
21
180.25
0
LINE
10
62
20
180.25
11
62
21
196.75
0
LINE
10
62
20
196.75
11
59
21
196.75
0
LINE
10
59
20
196.75
11
59
21
180.25
0
LINE
10
142
20
180.25
11
145
21
180.25
0
LINE
10
145
20
180.25
11
145
21
196.75
0
LINE
10
145
20
196.75
11
142
21
196.75
0
LINE
10
142
20
196.75
11
142
21
180.25
0
LINE
10
9
20
218
11
12
21
218
0
LINE
10
12
20
218
11
12
21
215
0
LINE
10
12
20
215
11
58
21
215
0
LINE
10
58
20
215
11
58
21
218
0
LINE
10
58
20
218
11
104
21
218
0
LINE
10
104
20
218
11
104
21
215
0
LINE
10
104
20
215
11
150
21
215
0
LINE
10
150
20
215
11
150
21
218
0
LINE
10
150
20
218
11
196
21
218
0
LINE
10
196
20
218
11
196
21
215
0
LINE
10
196
20
215
11
242
21
215
0
LINE
10
242
20
215
11
242
21
218
0
LINE
10
242
20
218
11
245
21
218
0
LINE
10
9
20
257
11
245
21
257
0
LINE
10
9
20
218
11
9
21
227.75
0
LINE
10
9
20
227.75
11
3
21
227.75
0
LINE
10
0
20
230.75
11
0
21
244.25
0
LINE
10
3
20
247.25
11
9
21
247.25
0
LINE
10
9
20
247.25
11
9
21
257
0
LINE
10
245
20
218
11
245
21
227.75
0
LINE
10
245
20
227.75
11
251
21
227.75
0
LINE
10
254
20
230.75
11
254
21
244.25
0
LINE
10
251
20
247.25
11
245
21
247.25
0
LINE
10
245
20
247.25
11
245
21
257
0
LINE
10
6
20
238
11
3
21
238
0
LINE
10
3
20
238
11
3
21
236
0
LINE
10
3
20
236
11
6
21
236
0
LINE
10
6
20
236
11
6
21
238
0
LINE
10
6
20
240
11
3
21
240
0
LINE
10
3
20
240
11
3
21
242
0
LINE
10
3
20
242
11
6
21
242
0
LINE
10
6
20
242
11
6
21
240
0
LINE
10
248
20
238
11
251
21
238
0
LINE
10
251
20
238
11
251
21
236
0
LINE
10
251
20
236
11
248
21
236
0
LINE
10
248
20
236
11
248
21
238
0
LINE
10
248
20
240
11
251
21
240
0
LINE
10
251
20
240
11
251
21
242
0
LINE
10
251
20
242
11
248
21
242
0
LINE
10
248
20
242
11
248
21
240
0
LINE
10
59
20
226.25
11
62
21
226.25
0
LINE
10
62
20
226.25
11
62
21
242.75
0
LINE
10
62
20
242.75
11
59
21
242.75
0
LINE
10
59
20
242.75
11
59
21
226.25
0
LINE
10
142
20
226.25
11
145
21
226.25
0
LINE
10
145
20
226.25
11
145
21
242.75
0
LINE
10
145
20
242.75
11
142
21
242.75
0
LINE
10
142
20
242.75
11
142
21
226.25
0
LINE
10
12
20
261
11
174
21
261
0
LINE
10
177
20
264
11
177
21
306
0
LINE
10
177
20
306
11
9
21
306
0
LINE
10
9
20
306
11
9
21
264
0
LINE
10
51
20
264
11
135
21
264
0
LINE
10
135
20
264
11
135
21
267
0
LINE
10
135
20
267
11
51
21
267
0
LINE
10
51
20
267
11
51
21
264
0
LINE
10
12
20
276.75
11
15
21
276.75
0
LINE
10
15
20
276.75
11
15
21
296.25
0
LINE
10
15
20
296.25
11
12
21
296.25
0
LINE
10
12
20
296.25
11
12
21
276.75
0
LINE
10
174
20
276.75
11
171
21
276.75
0
LINE
10
171
20
276.75
11
171
21
296.25
0
LINE
10
171
20
296.25
11
174
21
296.25
0
LINE
10
174
20
296.25
11
174
21
276.75
0
LINE
10
65
20
275.25
11
68
21
275.25
0
LINE
10
68
20
275.25
11
68
21
291.75
0
LINE
10
68
20
291.75
11
65
21
291.75
0
LINE
10
65
20
291.75
11
65
21
275.25
0
LINE
10
118
20
275.25
11
121
21
275.25
0
LINE
10
121
20
275.25
11
121
21
291.75
0
LINE
10
121
20
291.75
11
118
21
291.75
0
LINE
10
118
20
291.75
11
118
21
275.25
0
LINE
10
15
20
300
11
171
21
300
0
LINE
10
171
20
300
11
171
21
303
0
LINE
10
171
20
303
11
15
21
303
0
LINE
10
15
20
303
11
15
21
300
0
LINE
10
181
20
261
11
343
21
261
0
LINE
10
346
20
264
11
346
21
306
0
LINE
10
346
20
306
11
178
21
306
0
LINE
10
178
20
306
11
178
21
264
0
LINE
10
220
20
264
11
304
21
264
0
LINE
10
304
20
264
11
304
21
267
0
LINE
10
304
20
267
11
220
21
267
0
LINE
10
220
20
267
11
220
21
264
0
LINE
10
181
20
276.75
11
184
21
276.75
0
LINE
10
184
20
276.75
11
184
21
296.25
0
LINE
10
184
20
296.25
11
181
21
296.25
0
LINE
10
181
20
296.25
11
181
21
276.75
0
LINE
10
343
20
276.75
11
340
21
276.75
0
LINE
10
340
20
276.75
11
340
21
296.25
0
LINE
10
340
20
296.25
11
343
21
296.25
0
LINE
10
343
20
296.25
11
343
21
276.75
0
LINE
10
234
20
275.25
11
237
21
275.25
0
LINE
10
237
20
275.25
11
237
21
291.75
0
LINE
10
237
20
291.75
11
234
21
291.75
0
LINE
10
234
20
291.75
11
234
21
275.25
0
LINE
10
287
20
275.25
11
290
21
275.25
0
LINE
10
290
20
275.25
11
290
21
291.75
0
LINE
10
290
20
291.75
11
287
21
291.75
0
LINE
10
287
20
291.75
11
287
21
275.25
0
LINE
10
184
20
300
11
340
21
300
0
LINE
10
340
20
300
11
340
21
303
0
LINE
10
340
20
303
11
184
21
303
0
LINE
10
184
20
303
11
184
21
300
0
LINE
10
9
20
307
11
257
21
307
0
LINE
10
257
20
307
11
257
21
463
0
LINE
10
257
20
463
11
9
21
463
0
LINE
10
9
20
463
11
9
21
307
0
LINE
10
207.4
20
377.5
11
207.4
21
392.5
0
LINE
10
258
20
36
11
258
21
27.75
0
LINE
10
258
20
27.75
11
255
21
27.75
0
LINE
10
255
20
27.75
11
255
21
11.25
0
LINE
10
255
20
11.25
11
258
21
11.25
0
LINE
10
258
20
11.25
11
258
21
3
0
LINE
10
258
20
3
11
289.2
21
3
0
LINE
10
289.2
20
3
11
289.2
21
0
0
LINE
10
289.2
20
0
11
320.4
21
0
0
LINE
10
320.4
20
0
11
320.4
21
3
0
LINE
10
320.4
20
3
11
351.6
21
3
0
LINE
10
351.6
20
3
11
351.6
21
0
0
LINE
10
351.6
20
0
11
382.8
21
0
0
LINE
10
382.8
20
0
11
382.8
21
3
0
LINE
10
382.8
20
3
11
414
21
3
0
LINE
10
414
20
3
11
414
21
11.25
0
LINE
10
414
20
11.25
11
417
21
11.25
0
LINE
10
417
20
11.25
11
417
21
27.75
0
LINE
10
417
20
27.75
11
414
21
27.75
0
LINE
10
414
20
27.75
11
414
21
36
0
LINE
10
258
20
36
11
308
21
36
0
LINE
10
308
20
36
11
308
21
19.5
0
LINE
10
308
20
19.5
11
311
21
19.5
0
LINE
10
311
20
19.5
11
311
21
36
0
LINE
10
311
20
36
11
361
21
36
0
LINE
10
361
20
36
11
361
21
19.5
0
LINE
10
361
20
19.5
11
364
21
19.5
0
LINE
10
364
20
19.5
11
364
21
36
0
LINE
10
364
20
36
11
414
21
36
0
LINE
10
258
20
73
11
258
21
64.75
0
LINE
10
258
20
64.75
11
255
21
64.75
0
LINE
10
255
20
64.75
11
255
21
48.25
0
LINE
10
255
20
48.25
11
258
21
48.25
0
LINE
10
258
20
48.25
11
258
21
40
0
LINE
10
258
20
40
11
289.2
21
40
0
LINE
10
289.2
20
40
11
289.2
21
37
0
LINE
10
289.2
20
37
11
320.4
21
37
0
LINE
10
320.4
20
37
11
320.4
21
40
0
LINE
10
320.4
20
40
11
351.6
21
40
0
LINE
10
351.6
20
40
11
351.6
21
37
0
LINE
10
351.6
20
37
11
382.8
21
37
0
LINE
10
382.8
20
37
11
382.8
21
40
0
LINE
10
382.8
20
40
11
414
21
40
0
LINE
10
414
20
40
11
414
21
48.25
0
LINE
10
414
20
48.25
11
417
21
48.25
0
LINE
10
417
20
48.25
11
417
21
64.75
0
LINE
10
417
20
64.75
11
414
21
64.75
0
LINE
10
414
20
64.75
11
414
21
73
0
LINE
10
258
20
73
11
308
21
73
0
LINE
10
308
20
73
11
308
21
56.5
0
LINE
10
308
20
56.5
11
311
21
56.5
0
LINE
10
311
20
56.5
11
311
21
73
0
LINE
10
311
20
73
11
361
21
73
0
LINE
10
361
20
73
11
361
21
56.5
0
LINE
10
361
20
56.5
11
364
21
56.5
0
LINE
10
364
20
56.5
11
364
21
73
0
LINE
10
364
20
73
11
414
21
73
0
LINE
10
421
20
36
11
421
21
27.75
0
LINE
10
421
20
27.75
11
418
21
27.75
0
LINE
10
418
20
27.75
11
418
21
11.25
0
LINE
10
418
20
11.25
11
421
21
11.25
0
LINE
10
421
20
11.25
11
421
21
3
0
LINE
10
421
20
3
11
433.5
21
3
0
LINE
10
433.5
20
3
11
433.5
21
0
0
LINE
10
433.5
20
0
11
458.5
21
0
0
LINE
10
458.5
20
0
11
458.5
21
3
0
LINE
10
458.5
20
3
11
471
21
3
0
LINE
10
471
20
3
11
471
21
19.5
0
LINE
10
471
20
19.5
11
474
21
19.5
0
LINE
10
474
20
19.5
11
474
21
3
0
LINE
10
474
20
3
11
494
21
3
0
LINE
10
494
20
3
11
494
21
0
0
LINE
10
494
20
0
11
534
21
0
0
LINE
10
534
20
0
11
534
21
3
0
LINE
10
534
20
3
11
554
21
3
0
LINE
10
554
20
3
11
554
21
19.5
0
LINE
10
554
20
19.5
11
557
21
19.5
0
LINE
10
557
20
19.5
11
557
21
3
0
LINE
10
557
20
3
11
582
21
3
0
LINE
10
582
20
3
11
582
21
0
0
LINE
10
582
20
0
11
632
21
0
0
LINE
10
632
20
0
11
632
21
3
0
LINE
10
632
20
3
11
657
21
3
0
LINE
10
657
20
3
11
657
21
11.25
0
LINE
10
657
20
11.25
11
660
21
11.25
0
LINE
10
660
20
11.25
11
660
21
27.75
0
LINE
10
660
20
27.75
11
657
21
27.75
0
LINE
10
657
20
27.75
11
657
21
36
0
LINE
10
657
20
36
11
421
21
36
0
LINE
10
421
20
73
11
421
21
64.75
0
LINE
10
421
20
64.75
11
418
21
64.75
0
LINE
10
418
20
64.75
11
418
21
48.25
0
LINE
10
418
20
48.25
11
421
21
48.25
0
LINE
10
421
20
48.25
11
421
21
40
0
LINE
10
421
20
40
11
433.5
21
40
0
LINE
10
433.5
20
40
11
433.5
21
37
0
LINE
10
433.5
20
37
11
458.5
21
37
0
LINE
10
458.5
20
37
11
458.5
21
40
0
LINE
10
458.5
20
40
11
471
21
40
0
LINE
10
471
20
40
11
471
21
56.5
0
LINE
10
471
20
56.5
11
474
21
56.5
0
LINE
10
474
20
56.5
11
474
21
40
0
LINE
10
474
20
40
11
494
21
40
0
LINE
10
494
20
40
11
494
21
37
0
LINE
10
494
20
37
11
534
21
37
0
LINE
10
534
20
37
11
534
21
40
0
LINE
10
534
20
40
11
554
21
40
0
LINE
10
554
20
40
11
554
21
56.5
0
LINE
10
554
20
56.5
11
557
21
56.5
0
LINE
10
557
20
56.5
11
557
21
40
0
LINE
10
557
20
40
11
582
21
40
0
LINE
10
582
20
40
11
582
21
37
0
LINE
10
582
20
37
11
632
21
37
0
LINE
10
632
20
37
11
632
21
40
0
LINE
10
632
20
40
11
657
21
40
0
LINE
10
657
20
40
11
657
21
48.25
0
LINE
10
657
20
48.25
11
660
21
48.25
0
LINE
10
660
20
48.25
11
660
21
64.75
0
LINE
10
660
20
64.75
11
657
21
64.75
0
LINE
10
657
20
64.75
11
657
21
73
0
LINE
10
657
20
73
11
421
21
73
0
ARC
10
3
20
45
40
3
50
180
51
270
0
ARC
10
3
20
123
40
3
50
90
51
180
0
ARC
10
251
20
45
40
3
50
270
51
360
0
ARC
10
251
20
123
40
3
50
0
51
90
0
ARC
10
3
20
184.75
40
3
50
180
51
270
0
ARC
10
3
20
198.25
40
3
50
90
51
180
0
ARC
10
251
20
184.75
40
3
50
270
51
360
0
ARC
10
251
20
198.25
40
3
50
0
51
90
0
ARC
10
3
20
230.75
40
3
50
180
51
270
0
ARC
10
3
20
244.25
40
3
50
90
51
180
0
ARC
10
251
20
230.75
40
3
50
270
51
360
0
ARC
10
251
20
244.25
40
3
50
0
51
90
0
ARC
10
174
20
264
40
3
50
270
51
360
0
ARC
10
12
20
264
40
3
50
180
51
270
0
ARC
10
343
20
264
40
3
50
270
51
360
0
ARC
10
181
20
264
40
3
50
180
51
270
0
ARC
10
207.4
20
385
40
7.5
50
90
51
270
0
ENDSEC
0
EOF