0
SECTION
2
ENTITIES
0
LINE
10
9
20
0
11
278
21
0
0
LINE
10
9
20
213
11
278
21
213
0
LINE
10
9
20
0
11
9
21
53.25
0
LINE
10
278
20
0
11
278
21
53.25
0
LINE
10
9
20
213
11
9
21
159.75
0
LINE
10
278
20
213
11
278
21
159.75
0
LINE
10
9
20
53.25
11
3
21
53.25
0
LINE
10
0
20
56.25
11
0
21
156.75
0
LINE
10
3
20
159.75
11
9
21
159.75
0
LINE
10
278
20
53.25
11
284
21
53.25
0
LINE
10
287
20
56.25
11
287
21
156.75
0
LINE
10
284
20
159.75
11
278
21
159.75
0
LINE
10
3
20
105.5
11
6
21
105.5
0
LINE
10
6
20
105.5
11
6
21
103.5
0
LINE
10
6
20
103.5
11
3
21
103.5
0
LINE
10
3
20
103.5
11
3
21
105.5
0
LINE
10
3
20
107.5
11
6
21
107.5
0
LINE
10
6
20
107.5
11
6
21
109.5
0
LINE
10
6
20
109.5
11
3
21
109.5
0
LINE
10
3
20
109.5
11
3
21
107.5
0
LINE
10
281
20
105.5
11
284
21
105.5
0
LINE
10
284
20
105.5
11
284
21
103.5
0
LINE
10
284
20
103.5
11
281
21
103.5
0
LINE
10
281
20
103.5
11
281
21
105.5
0
LINE
10
281
20
107.5
11
284
21
107.5
0
LINE
10
284
20
107.5
11
284
21
109.5
0
LINE
10
284
20
109.5
11
281
21
109.5
0
LINE
10
281
20
109.5
11
281
21
107.5
0
LINE
10
12
20
6
11
64.6
21
6
0
LINE
10
64.6
20
6
11
64.6
21
3
0
LINE
10
64.6
20
3
11
12
21
3
0
LINE
10
12
20
3
11
12
21
6
0
LINE
10
12
20
207
11
64.6
21
207
0
LINE
10
64.6
20
207
11
64.6
21
210
0
LINE
10
64.6
20
210
11
12
21
210
0
LINE
10
12
20
210
11
12
21
207
0
LINE
10
117.2
20
6
11
169.8
21
6
0
LINE
10
169.8
20
6
11
169.8
21
3
0
LINE
10
169.8
20
3
11
117.2
21
3
0
LINE
10
117.2
20
3
11
117.2
21
6
0
LINE
10
117.2
20
207
11
169.8
21
207
0
LINE
10
169.8
20
207
11
169.8
21
210
0
LINE
10
169.8
20
210
11
117.2
21
210
0
LINE
10
117.2
20
210
11
117.2
21
207
0
LINE
10
222.4
20
6
11
275
21
6
0
LINE
10
275
20
6
11
275
21
3
0
LINE
10
275
20
3
11
222.4
21
3
0
LINE
10
222.4
20
3
11
222.4
21
6
0
LINE
10
222.4
20
207
11
275
21
207
0
LINE
10
275
20
207
11
275
21
210
0
LINE
10
275
20
210
11
222.4
21
210
0
LINE
10
222.4
20
210
11
222.4
21
207
0
LINE
10
74
20
46.2
11
77
21
46.2
0
LINE
10
77
20
46.2
11
77
21
86.4
0
LINE
10
77
20
86.4
11
74
21
86.4
0
LINE
10
74
20
86.4
11
74
21
46.2
0
LINE
10
74
20
166.8
11
77
21
166.8
0
LINE
10
77
20
166.8
11
77
21
126.6
0
LINE
10
77
20
126.6
11
74
21
126.6
0
LINE
10
74
20
126.6
11
74
21
166.8
0
LINE
10
142
20
46.2
11
145
21
46.2
0
LINE
10
145
20
46.2
11
145
21
86.4
0
LINE
10
145
20
86.4
11
142
21
86.4
0
LINE
10
142
20
86.4
11
142
21
46.2
0
LINE
10
142
20
166.8
11
145
21
166.8
0
LINE
10
145
20
166.8
11
145
21
126.6
0
LINE
10
145
20
126.6
11
142
21
126.6
0
LINE
10
142
20
126.6
11
142
21
166.8
0
LINE
10
210
20
46.2
11
213
21
46.2
0
LINE
10
213
20
46.2
11
213
21
86.4
0
LINE
10
213
20
86.4
11
210
21
86.4
0
LINE
10
210
20
86.4
11
210
21
46.2
0
LINE
10
210
20
166.8
11
213
21
166.8
0
LINE
10
213
20
166.8
11
213
21
126.6
0
LINE
10
213
20
126.6
11
210
21
126.6
0
LINE
10
210
20
126.6
11
210
21
166.8
0
LINE
10
57.75
20
71
11
25.25
21
71
0
LINE
10
25.25
20
71
11
25.25
21
74
0
LINE
10
25.25
20
74
11
57.75
21
74
0
LINE
10
57.75
20
74
11
57.75
21
71
0
LINE
10
57.75
20
139
11
25.25
21
139
0
LINE
10
25.25
20
139
11
25.25
21
142
0
LINE
10
25.25
20
142
11
57.75
21
142
0
LINE
10
57.75
20
142
11
57.75
21
139
0
LINE
10
125.75
20
71
11
93.25
21
71
0
LINE
10
93.25
20
71
11
93.25
21
74
0
LINE
10
93.25
20
74
11
125.75
21
74
0
LINE
10
125.75
20
74
11
125.75
21
71
0
LINE
10
125.75
20
139
11
93.25
21
139
0
LINE
10
93.25
20
139
11
93.25
21
142
0
LINE
10
93.25
20
142
11
125.75
21
142
0
LINE
10
125.75
20
142
11
125.75
21
139
0
LINE
10
193.75
20
71
11
161.25
21
71
0
LINE
10
161.25
20
71
11
161.25
21
74
0
LINE
10
161.25
20
74
11
193.75
21
74
0
LINE
10
193.75
20
74
11
193.75
21
71
0
LINE
10
193.75
20
139
11
161.25
21
139
0
LINE
10
161.25
20
139
11
161.25
21
142
0
LINE
10
161.25
20
142
11
193.75
21
142
0
LINE
10
193.75
20
142
11
193.75
21
139
0
LINE
10
261.75
20
71
11
229.25
21
71
0
LINE
10
229.25
20
71
11
229.25
21
74
0
LINE
10
229.25
20
74
11
261.75
21
74
0
LINE
10
261.75
20
74
11
261.75
21
71
0
LINE
10
261.75
20
139
11
229.25
21
139
0
LINE
10
229.25
20
139
11
229.25
21
142
0
LINE
10
229.25
20
142
11
261.75
21
142
0
LINE
10
261.75
20
142
11
261.75
21
139
0
LINE
10
9
20
217
11
12
21
217
0
LINE
10
12
20
217
11
12
21
214
0
LINE
10
12
20
214
11
64.6
21
214
0
LINE
10
64.6
20
214
11
64.6
21
217
0
LINE
10
64.6
20
217
11
117.2
21
217
0
LINE
10
117.2
20
217
11
117.2
21
214
0
LINE
10
117.2
20
214
11
169.8
21
214
0
LINE
10
169.8
20
214
11
169.8
21
217
0
LINE
10
169.8
20
217
11
222.4
21
217
0
LINE
10
222.4
20
217
11
222.4
21
214
0
LINE
10
222.4
20
214
11
275
21
214
0
LINE
10
275
20
214
11
275
21
217
0
LINE
10
275
20
217
11
278
21
217
0
LINE
10
9
20
311
11
278
21
311
0
LINE
10
9
20
217
11
9
21
240.5
0
LINE
10
9
20
240.5
11
3
21
240.5
0
LINE
10
0
20
243.5
11
0
21
284.5
0
LINE
10
3
20
287.5
11
9
21
287.5
0
LINE
10
9
20
287.5
11
9
21
311
0
LINE
10
278
20
217
11
278
21
240.5
0
LINE
10
278
20
240.5
11
284
21
240.5
0
LINE
10
287
20
243.5
11
287
21
284.5
0
LINE
10
284
20
287.5
11
278
21
287.5
0
LINE
10
278
20
287.5
11
278
21
311
0
LINE
10
6
20
264.5
11
3
21
264.5
0
LINE
10
3
20
264.5
11
3
21
262.5
0
LINE
10
3
20
262.5
11
6
21
262.5
0
LINE
10
6
20
262.5
11
6
21
264.5
0
LINE
10
6
20
266.5
11
3
21
266.5
0
LINE
10
3
20
266.5
11
3
21
268.5
0
LINE
10
3
20
268.5
11
6
21
268.5
0
LINE
10
6
20
268.5
11
6
21
266.5
0
LINE
10
281
20
264.5
11
284
21
264.5
0
LINE
10
284
20
264.5
11
284
21
262.5
0
LINE
10
284
20
262.5
11
281
21
262.5
0
LINE
10
281
20
262.5
11
281
21
264.5
0
LINE
10
281
20
266.5
11
284
21
266.5
0
LINE
10
284
20
266.5
11
284
21
268.5
0
LINE
10
284
20
268.5
11
281
21
268.5
0
LINE
10
281
20
268.5
11
281
21
266.5
0
LINE
10
74
20
240.5
11
77
21
240.5
0
LINE
10
77
20
240.5
11
77
21
287.5
0
LINE
10
77
20
287.5
11
74
21
287.5
0
LINE
10
74
20
287.5
11
74
21
240.5
0
LINE
10
142
20
240.5
11
145
21
240.5
0
LINE
10
145
20
240.5
11
145
21
287.5
0
LINE
10
145
20
287.5
11
142
21
287.5
0
LINE
10
142
20
287.5
11
142
21
240.5
0
LINE
10
210
20
240.5
11
213
21
240.5
0
LINE
10
213
20
240.5
11
213
21
287.5
0
LINE
10
213
20
287.5
11
210
21
287.5
0
LINE
10
210
20
287.5
11
210
21
240.5
0
LINE
10
9
20
318
11
12
21
318
0
LINE
10
12
20
318
11
12
21
315
0
LINE
10
12
20
315
11
64.6
21
315
0
LINE
10
64.6
20
315
11
64.6
21
318
0
LINE
10
64.6
20
318
11
117.2
21
318
0
LINE
10
117.2
20
318
11
117.2
21
315
0
LINE
10
117.2
20
315
11
169.8
21
315
0
LINE
10
169.8
20
315
11
169.8
21
318
0
LINE
10
169.8
20
318
11
222.4
21
318
0
LINE
10
222.4
20
318
11
222.4
21
315
0
LINE
10
222.4
20
315
11
275
21
315
0
LINE
10
275
20
315
11
275
21
318
0
LINE
10
275
20
318
11
278
21
318
0
LINE
10
9
20
412
11
278
21
412
0
LINE
10
9
20
318
11
9
21
341.5
0
LINE
10
9
20
341.5
11
3
21
341.5
0
LINE
10
0
20
344.5
11
0
21
385.5
0
LINE
10
3
20
388.5
11
9
21
388.5
0
LINE
10
9
20
388.5
11
9
21
412
0
LINE
10
278
20
318
11
278
21
341.5
0
LINE
10
278
20
341.5
11
284
21
341.5
0
LINE
10
287
20
344.5
11
287
21
385.5
0
LINE
10
284
20
388.5
11
278
21
388.5
0
LINE
10
278
20
388.5
11
278
21
412
0
LINE
10
6
20
365.5
11
3
21
365.5
0
LINE
10
3
20
365.5
11
3
21
363.5
0
LINE
10
3
20
363.5
11
6
21
363.5
0
LINE
10
6
20
363.5
11
6
21
365.5
0
LINE
10
6
20
367.5
11
3
21
367.5
0
LINE
10
3
20
367.5
11
3
21
369.5
0
LINE
10
3
20
369.5
11
6
21
369.5
0
LINE
10
6
20
369.5
11
6
21
367.5
0
LINE
10
281
20
365.5
11
284
21
365.5
0
LINE
10
284
20
365.5
11
284
21
363.5
0
LINE
10
284
20
363.5
11
281
21
363.5
0
LINE
10
281
20
363.5
11
281
21
365.5
0
LINE
10
281
20
367.5
11
284
21
367.5
0
LINE
10
284
20
367.5
11
284
21
369.5
0
LINE
10
284
20
369.5
11
281
21
369.5
0
LINE
10
281
20
369.5
11
281
21
367.5
0
LINE
10
74
20
341.5
11
77
21
341.5
0
LINE
10
77
20
341.5
11
77
21
388.5
0
LINE
10
77
20
388.5
11
74
21
388.5
0
LINE
10
74
20
388.5
11
74
21
341.5
0
LINE
10
142
20
341.5
11
145
21
341.5
0
LINE
10
145
20
341.5
11
145
21
388.5
0
LINE
10
145
20
388.5
11
142
21
388.5
0
LINE
10
142
20
388.5
11
142
21
341.5
0
LINE
10
210
20
341.5
11
213
21
341.5
0
LINE
10
213
20
341.5
11
213
21
388.5
0
LINE
10
213
20
388.5
11
210
21
388.5
0
LINE
10
210
20
388.5
11
210
21
341.5
0
LINE
10
12
20
416
11
219
21
416
0
LINE
10
222
20
419
11
222
21
516
0
LINE
10
222
20
516
11
9
21
516
0
LINE
10
9
20
516
11
9
21
419
0
LINE
10
62.25
20
419
11
168.75
21
419
0
LINE
10
168.75
20
419
11
168.75
21
422
0
LINE
10
168.75
20
422
11
62.25
21
422
0
LINE
10
62.25
20
422
11
62.25
21
419
0
LINE
10
12
20
445.5
11
15
21
445.5
0
LINE
10
15
20
445.5
11
15
21
492.5
0
LINE
10
15
20
492.5
11
12
21
492.5
0
LINE
10
12
20
492.5
11
12
21
445.5
0
LINE
10
219
20
445.5
11
216
21
445.5
0
LINE
10
216
20
445.5
11
216
21
492.5
0
LINE
10
216
20
492.5
11
219
21
492.5
0
LINE
10
219
20
492.5
11
219
21
445.5
0
LINE
10
80
20
445.5
11
83
21
445.5
0
LINE
10
83
20
445.5
11
83
21
492.5
0
LINE
10
83
20
492.5
11
80
21
492.5
0
LINE
10
80
20
492.5
11
80
21
445.5
0
LINE
10
148
20
445.5
11
151
21
445.5
0
LINE
10
151
20
445.5
11
151
21
492.5
0
LINE
10
151
20
492.5
11
148
21
492.5
0
LINE
10
148
20
492.5
11
148
21
445.5
0
LINE
10
226
20
416
11
433
21
416
0
LINE
10
436
20
419
11
436
21
516
0
LINE
10
436
20
516
11
223
21
516
0
LINE
10
223
20
516
11
223
21
419
0
LINE
10
276.25
20
419
11
382.75
21
419
0
LINE
10
382.75
20
419
11
382.75
21
422
0
LINE
10
382.75
20
422
11
276.25
21
422
0
LINE
10
276.25
20
422
11
276.25
21
419
0
LINE
10
226
20
445.5
11
229
21
445.5
0
LINE
10
229
20
445.5
11
229
21
492.5
0
LINE
10
229
20
492.5
11
226
21
492.5
0
LINE
10
226
20
492.5
11
226
21
445.5
0
LINE
10
433
20
445.5
11
430
21
445.5
0
LINE
10
430
20
445.5
11
430
21
492.5
0
LINE
10
430
20
492.5
11
433
21
492.5
0
LINE
10
433
20
492.5
11
433
21
445.5
0
LINE
10
294
20
445.5
11
297
21
445.5
0
LINE
10
297
20
445.5
11
297
21
492.5
0
LINE
10
297
20
492.5
11
294
21
492.5
0
LINE
10
294
20
492.5
11
294
21
445.5
0
LINE
10
362
20
445.5
11
365
21
445.5
0
LINE
10
365
20
445.5
11
365
21
492.5
0
LINE
10
365
20
492.5
11
362
21
492.5
0
LINE
10
362
20
492.5
11
362
21
445.5
0
LINE
10
291
20
97
11
291
21
73.5
0
LINE
10
291
20
73.5
11
288
21
73.5
0
LINE
10
288
20
73.5
11
288
21
26.5
0
LINE
10
288
20
26.5
11
291
21
26.5
0
LINE
10
291
20
26.5
11
291
21
3
0
LINE
10
291
20
3
11
331.2
21
3
0
LINE
10
331.2
20
3
11
331.2
21
0
0
LINE
10
331.2
20
0
11
371.4
21
0
0
LINE
10
371.4
20
0
11
371.4
21
3
0
LINE
10
371.4
20
3
11
411.6
21
3
0
LINE
10
411.6
20
3
11
411.6
21
0
0
LINE
10
411.6
20
0
11
451.8
21
0
0
LINE
10
451.8
20
0
11
451.8
21
3
0
LINE
10
451.8
20
3
11
492
21
3
0
LINE
10
492
20
3
11
492
21
26.5
0
LINE
10
492
20
26.5
11
495
21
26.5
0
LINE
10
495
20
26.5
11
495
21
73.5
0
LINE
10
495
20
73.5
11
492
21
73.5
0
LINE
10
492
20
73.5
11
492
21
97
0
LINE
10
291
20
97
11
356
21
97
0
LINE
10
356
20
97
11
356
21
50
0
LINE
10
356
20
50
11
359
21
50
0
LINE
10
359
20
50
11
359
21
97
0
LINE
10
359
20
97
11
424
21
97
0
LINE
10
424
20
97
11
424
21
50
0
LINE
10
424
20
50
11
427
21
50
0
LINE
10
427
20
50
11
427
21
97
0
LINE
10
427
20
97
11
492
21
97
0
LINE
10
291
20
195
11
291
21
171.5
0
LINE
10
291
20
171.5
11
288
21
171.5
0
LINE
10
288
20
171.5
11
288
21
124.5
0
LINE
10
288
20
124.5
11
291
21
124.5
0
LINE
10
291
20
124.5
11
291
21
101
0
LINE
10
291
20
101
11
331.2
21
101
0
LINE
10
331.2
20
101
11
331.2
21
98
0
LINE
10
331.2
20
98
11
371.4
21
98
0
LINE
10
371.4
20
98
11
371.4
21
101
0
LINE
10
371.4
20
101
11
411.6
21
101
0
LINE
10
411.6
20
101
11
411.6
21
98
0
LINE
10
411.6
20
98
11
451.8
21
98
0
LINE
10
451.8
20
98
11
451.8
21
101
0
LINE
10
451.8
20
101
11
492
21
101
0
LINE
10
492
20
101
11
492
21
124.5
0
LINE
10
492
20
124.5
11
495
21
124.5
0
LINE
10
495
20
124.5
11
495
21
171.5
0
LINE
10
495
20
171.5
11
492
21
171.5
0
LINE
10
492
20
171.5
11
492
21
195
0
LINE
10
291
20
195
11
356
21
195
0
LINE
10
356
20
195
11
356
21
148
0
LINE
10
356
20
148
11
359
21
148
0
LINE
10
359
20
148
11
359
21
195
0
LINE
10
359
20
195
11
424
21
195
0
LINE
10
424
20
195
11
424
21
148
0
LINE
10
424
20
148
11
427
21
148
0
LINE
10
427
20
148
11
427
21
195
0
LINE
10
427
20
195
11
492
21
195
0
LINE
10
291
20
293
11
291
21
269.5
0
LINE
10
291
20
269.5
11
288
21
269.5
0
LINE
10
288
20
269.5
11
288
21
222.5
0
LINE
10
288
20
222.5
11
291
21
222.5
0
LINE
10
291
20
222.5
11
291
21
199
0
LINE
10
291
20
199
11
331.2
21
199
0
LINE
10
331.2
20
199
11
331.2
21
196
0
LINE
10
331.2
20
196
11
371.4
21
196
0
LINE
10
371.4
20
196
11
371.4
21
199
0
LINE
10
371.4
20
199
11
411.6
21
199
0
LINE
10
411.6
20
199
11
411.6
21
196
0
LINE
10
411.6
20
196
11
451.8
21
196
0
LINE
10
451.8
20
196
11
451.8
21
199
0
LINE
10
451.8
20
199
11
492
21
199
0
LINE
10
492
20
199
11
492
21
222.5
0
LINE
10
492
20
222.5
11
495
21
222.5
0
LINE
10
495
20
222.5
11
495
21
269.5
0
LINE
10
495
20
269.5
11
492
21
269.5
0
LINE
10
492
20
269.5
11
492
21
293
0
LINE
10
291
20
293
11
356
21
293
0
LINE
10
356
20
293
11
356
21
246
0
LINE
10
356
20
246
11
359
21
246
0
LINE
10
359
20
246
11
359
21
293
0
LINE
10
359
20
293
11
424
21
293
0
LINE
10
424
20
293
11
424
21
246
0
LINE
10
424
20
246
11
427
21
246
0
LINE
10
427
20
246
11
427
21
293
0
LINE
10
427
20
293
11
492
21
293
0
LINE
10
499
20
97
11
499
21
73.5
0
LINE
10
499
20
73.5
11
496
21
73.5
0
LINE
10
496
20
73.5
11
496
21
26.5
0
LINE
10
496
20
26.5
11
499
21
26.5
0
LINE
10
499
20
26.5
11
499
21
3
0
LINE
10
499
20
3
11
515.25
21
3
0
LINE
10
515.25
20
3
11
515.25
21
0
0
LINE
10
515.25
20
0
11
547.75
21
0
0
LINE
10
547.75
20
0
11
547.75
21
3
0
LINE
10
547.75
20
3
11
564
21
3
0
LINE
10
564
20
3
11
564
21
50
0
LINE
10
564
20
50
11
567
21
50
0
LINE
10
567
20
50
11
567
21
3
0
LINE
10
567
20
3
11
583.25
21
3
0
LINE
10
583.25
20
3
11
583.25
21
0
0
LINE
10
583.25
20
0
11
615.75
21
0
0
LINE
10
615.75
20
0
11
615.75
21
3
0
LINE
10
615.75
20
3
11
632
21
3
0
LINE
10
632
20
3
11
632
21
50
0
LINE
10
632
20
50
11
635
21
50
0
LINE
10
635
20
50
11
635
21
3
0
LINE
10
635
20
3
11
651.25
21
3
0
LINE
10
651.25
20
3
11
651.25
21
0
0
LINE
10
651.25
20
0
11
683.75
21
0
0
LINE
10
683.75
20
0
11
683.75
21
3
0
LINE
10
683.75
20
3
11
700
21
3
0
LINE
10
700
20
3
11
700
21
50
0
LINE
10
700
20
50
11
703
21
50
0
LINE
10
703
20
50
11
703
21
3
0
LINE
10
703
20
3
11
719.25
21
3
0
LINE
10
719.25
20
3
11
719.25
21
0
0
LINE
10
719.25
20
0
11
751.75
21
0
0
LINE
10
751.75
20
0
11
751.75
21
3
0
LINE
10
751.75
20
3
11
768
21
3
0
LINE
10
768
20
3
11
768
21
26.5
0
LINE
10
768
20
26.5
11
771
21
26.5
0
LINE
10
771
20
26.5
11
771
21
73.5
0
LINE
10
771
20
73.5
11
768
21
73.5
0
LINE
10
768
20
73.5
11
768
21
97
0
LINE
10
768
20
97
11
499
21
97
0
LINE
10
499
20
195
11
499
21
171.5
0
LINE
10
499
20
171.5
11
496
21
171.5
0
LINE
10
496
20
171.5
11
496
21
124.5
0
LINE
10
496
20
124.5
11
499
21
124.5
0
LINE
10
499
20
124.5
11
499
21
101
0
LINE
10
499
20
101
11
515.25
21
101
0
LINE
10
515.25
20
101
11
515.25
21
98
0
LINE
10
515.25
20
98
11
547.75
21
98
0
LINE
10
547.75
20
98
11
547.75
21
101
0
LINE
10
547.75
20
101
11
564
21
101
0
LINE
10
564
20
101
11
564
21
148
0
LINE
10
564
20
148
11
567
21
148
0
LINE
10
567
20
148
11
567
21
101
0
LINE
10
567
20
101
11
583.25
21
101
0
LINE
10
583.25
20
101
11
583.25
21
98
0
LINE
10
583.25
20
98
11
615.75
21
98
0
LINE
10
615.75
20
98
11
615.75
21
101
0
LINE
10
615.75
20
101
11
632
21
101
0
LINE
10
632
20
101
11
632
21
148
0
LINE
10
632
20
148
11
635
21
148
0
LINE
10
635
20
148
11
635
21
101
0
LINE
10
635
20
101
11
651.25
21
101
0
LINE
10
651.25
20
101
11
651.25
21
98
0
LINE
10
651.25
20
98
11
683.75
21
98
0
LINE
10
683.75
20
98
11
683.75
21
101
0
LINE
10
683.75
20
101
11
700
21
101
0
LINE
10
700
20
101
11
700
21
148
0
LINE
10
700
20
148
11
703
21
148
0
LINE
10
703
20
148
11
703
21
101
0
LINE
10
703
20
101
11
719.25
21
101
0
LINE
10
719.25
20
101
11
719.25
21
98
0
LINE
10
719.25
20
98
11
751.75
21
98
0
LINE
10
751.75
20
98
11
751.75
21
101
0
LINE
10
751.75
20
101
11
768
21
101
0
LINE
10
768
20
101
11
768
21
124.5
0
LINE
10
768
20
124.5
11
771
21
124.5
0
LINE
10
771
20
124.5
11
771
21
171.5
0
LINE
10
771
20
171.5
11
768
21
171.5
0
LINE
10
768
20
171.5
11
768
21
195
0
LINE
10
768
20
195
11
499
21
195
0
ARC
10
3
20
56.25
40
3
50
180
51
270
0
ARC
10
3
20
156.75
40
3
50
90
51
180
0
ARC
10
284
20
56.25
40
3
50
270
51
360
0
ARC
10
284
20
156.75
40
3
50
0
51
90
0
ARC
10
3
20
243.5
40
3
50
180
51
270
0
ARC
10
3
20
284.5
40
3
50
90
51
180
0
ARC
10
284
20
243.5
40
3
50
270
51
360
0
ARC
10
284
20
284.5
40
3
50
0
51
90
0
ARC
10
3
20
344.5
40
3
50
180
51
270
0
ARC
10
3
20
385.5
40
3
50
90
51
180
0
ARC
10
284
20
344.5
40
3
50
270
51
360
0
ARC
10
284
20
385.5
40
3
50
0
51
90
0
ARC
10
219
20
419
40
3
50
270
51
360
0
ARC
10
12
20
419
40
3
50
180
51
270
0
ARC
10
433
20
419
40
3
50
270
51
360
0
ARC
10
226
20
419
40
3
50
180
51
270
0
ENDSEC
0
EOF